<svg xmlns="http://www.w3.org/2000/svg" width="800" height="800" viewBox="0 0 800 800">
  <rect width="800" height="800" fill="#07070a"/>
  
    
    <defs>
      <pattern id="grid" width="48" height="48" patternUnits="userSpaceOnUse">
        <path d="M 48 0 L 0 0 0 48" fill="none" stroke="#2a2a38" stroke-width="1" opacity="0.35"/>
      </pattern>
    </defs>
    <rect width="800" height="800" fill="url(#grid)"/>
  
    
    <defs>
      <radialGradient id="glow1" cx="50%" cy="50%" r="50%">
        <stop offset="0%" stop-color="#8fedb2" stop-opacity="0.55"/>
        <stop offset="100%" stop-color="#8fedb2" stop-opacity="0"/>
      </radialGradient>
    </defs>
    <circle cx="400" cy="400" r="300" fill="url(#glow1)"/>
  
    <circle cx="265.6" cy="660.8" r="2.5" fill="#8fedb2" opacity="0.25"/><circle cx="383.4" cy="239.5" r="2.0" fill="#8fedb2" opacity="0.67"/><circle cx="122.6" cy="51.9" r="3.0" fill="#8fedb2" opacity="0.38"/><circle cx="65.9" cy="740.1" r="2.4" fill="#8fedb2" opacity="0.54"/><circle cx="233.0" cy="427.4" r="2.2" fill="#8fedb2" opacity="0.26"/><circle cx="258.6" cy="230.0" r="3.6" fill="#8fedb2" opacity="0.27"/><circle cx="103.2" cy="700.8" r="2.5" fill="#8fedb2" opacity="0.31"/><circle cx="497.5" cy="407.9" r="3.9" fill="#8fedb2" opacity="0.45"/><circle cx="720.7" cy="645.1" r="3.8" fill="#8fedb2" opacity="0.69"/><circle cx="110.9" cy="276.4" r="1.9" fill="#8fedb2" opacity="0.39"/><circle cx="110.2" cy="714.4" r="3.9" fill="#8fedb2" opacity="0.57"/><circle cx="441.9" cy="230.5" r="2.9" fill="#8fedb2" opacity="0.49"/><circle cx="622.3" cy="0.2" r="2.4" fill="#8fedb2" opacity="0.62"/><circle cx="404.3" cy="280.1" r="3.8" fill="#8fedb2" opacity="0.44"/><circle cx="755.8" cy="319.7" r="2.4" fill="#8fedb2" opacity="0.48"/><circle cx="570.7" cy="405.4" r="3.1" fill="#8fedb2" opacity="0.34"/><circle cx="313.2" cy="438.4" r="2.8" fill="#8fedb2" opacity="0.41"/><circle cx="595.6" cy="645.9" r="4.0" fill="#8fedb2" opacity="0.52"/><circle cx="489.5" cy="425.5" r="3.1" fill="#8fedb2" opacity="0.37"/><circle cx="370.3" cy="122.7" r="2.5" fill="#8fedb2" opacity="0.30"/><circle cx="494.7" cy="142.5" r="1.9" fill="#8fedb2" opacity="0.42"/><circle cx="112.0" cy="593.6" r="1.6" fill="#8fedb2" opacity="0.54"/>
    <g transform="translate(267.4 267.4)" opacity="0.9"><rect x="0" y="0" width="88.4" height="88.4" rx="4" fill="#8fedb2" opacity="0.9"/><rect x="104.31200000000001" y="0" width="88.4" height="88.4" rx="4" fill="#8fedb2" opacity="0.5"/><rect x="208.62400000000002" y="0" width="88.4" height="88.4" rx="4" fill="#8fedb2" opacity="0.7"/><rect x="0" y="104.31200000000001" width="88.4" height="88.4" rx="4" fill="#8fedb2" opacity="0.6"/><rect x="104.31200000000001" y="104.31200000000001" width="88.4" height="88.4" rx="4" fill="#8fedb2" opacity="1"/><rect x="208.62400000000002" y="104.31200000000001" width="88.4" height="88.4" rx="4" fill="#8fedb2" opacity="0.55"/><rect x="0" y="208.62400000000002" width="88.4" height="88.4" rx="4" fill="#8fedb2" opacity="0.75"/><rect x="104.31200000000001" y="208.62400000000002" width="88.4" height="88.4" rx="4" fill="#8fedb2" opacity="0.45"/><rect x="208.62400000000002" y="208.62400000000002" width="88.4" height="88.4" rx="4" fill="#8fedb2" opacity="0.85"/></g>
    
    <g opacity="0.5" stroke="#8fedb2" stroke-width="2.5" stroke-linecap="round">
      <path d="M 594 30 L 770 30 L 770 206" fill="none"/>
      <path d="M 30 594 L 30 770 L 206 770" fill="none"/>
    </g>
  
    <rect x="1" y="1" width="798" height="798" fill="none" stroke="#2a2a38" stroke-width="2"/>
  
</svg>