<svg xmlns="http://www.w3.org/2000/svg" width="800" height="800" viewBox="0 0 800 800">
  <rect width="800" height="800" fill="#07070a"/>
  
    
    <defs>
      <pattern id="grid" width="48" height="48" patternUnits="userSpaceOnUse">
        <path d="M 48 0 L 0 0 0 48" fill="none" stroke="#2a2a38" stroke-width="1" opacity="0.35"/>
      </pattern>
    </defs>
    <rect width="800" height="800" fill="url(#grid)"/>
  
    
    <defs>
      <radialGradient id="glow1" cx="50%" cy="50%" r="50%">
        <stop offset="0%" stop-color="#93ecf6" stop-opacity="0.55"/>
        <stop offset="100%" stop-color="#93ecf6" stop-opacity="0"/>
      </radialGradient>
    </defs>
    <circle cx="400" cy="400" r="432" fill="url(#glow1)"/>
  
    <g opacity="0.4" stroke="#93ecf6" stroke-width="2" stroke-linecap="round"><line x1="522.4" y1="410.6" x2="718.4" y2="427.5" opacity="0.67"/><line x1="496.0" y1="476.7" x2="714.6" y2="651.6" opacity="0.74"/><line x1="453.2" y1="510.8" x2="566.5" y2="747.1" opacity="0.66"/><line x1="373.6" y1="520.0" x2="330.9" y2="714.5" opacity="0.66"/><line x1="321.0" y1="494.1" x2="140.0" y2="709.5" opacity="0.43"/><line x1="290.3" y1="455.3" x2="25.8" y2="588.5" opacity="0.69"/><line x1="280.0" y1="373.7" x2="-12.5" y2="309.5" opacity="0.64"/><line x1="294.0" y1="337.9" x2="110.4" y2="230.3" opacity="0.50"/><line x1="342.0" y1="291.6" x2="235.1" y2="91.8" opacity="0.46"/><line x1="418.1" y1="278.5" x2="456.9" y2="18.7" opacity="0.74"/><line x1="482.1" y1="308.5" x2="643.8" y2="128.2" opacity="0.55"/><line x1="510.2" y1="345.6" x2="708.9" y2="247.6" opacity="0.59"/></g>
    <circle cx="275.9" cy="188.0" r="3.6" fill="#93ecf6" opacity="0.50"/><circle cx="683.4" cy="777.4" r="2.3" fill="#93ecf6" opacity="0.56"/><circle cx="663.0" cy="691.9" r="2.1" fill="#93ecf6" opacity="0.61"/><circle cx="560.2" cy="692.0" r="2.4" fill="#93ecf6" opacity="0.31"/><circle cx="780.0" cy="708.5" r="3.7" fill="#93ecf6" opacity="0.70"/><circle cx="631.1" cy="20.6" r="2.4" fill="#93ecf6" opacity="0.45"/><circle cx="103.7" cy="366.3" r="2.6" fill="#93ecf6" opacity="0.50"/><circle cx="580.3" cy="787.8" r="3.6" fill="#93ecf6" opacity="0.49"/><circle cx="480.8" cy="208.5" r="2.6" fill="#93ecf6" opacity="0.54"/><circle cx="239.8" cy="544.4" r="3.1" fill="#93ecf6" opacity="0.38"/><circle cx="617.6" cy="748.6" r="3.7" fill="#93ecf6" opacity="0.26"/><circle cx="745.3" cy="189.0" r="1.8" fill="#93ecf6" opacity="0.23"/><circle cx="701.8" cy="159.5" r="3.4" fill="#93ecf6" opacity="0.31"/><circle cx="625.3" cy="324.2" r="3.1" fill="#93ecf6" opacity="0.34"/><circle cx="357.9" cy="495.5" r="1.8" fill="#93ecf6" opacity="0.35"/><circle cx="423.0" cy="545.0" r="2.4" fill="#93ecf6" opacity="0.60"/><circle cx="336.7" cy="48.0" r="3.6" fill="#93ecf6" opacity="0.57"/><circle cx="652.0" cy="61.2" r="1.6" fill="#93ecf6" opacity="0.22"/><circle cx="736.9" cy="634.2" r="1.9" fill="#93ecf6" opacity="0.60"/><circle cx="285.2" cy="453.2" r="1.8" fill="#93ecf6" opacity="0.28"/><circle cx="561.0" cy="219.5" r="3.1" fill="#93ecf6" opacity="0.69"/><circle cx="576.7" cy="160.4" r="3.5" fill="#93ecf6" opacity="0.63"/><circle cx="204.0" cy="473.2" r="1.8" fill="#93ecf6" opacity="0.31"/><circle cx="618.1" cy="703.8" r="2.8" fill="#93ecf6" opacity="0.58"/><circle cx="475.8" cy="457.0" r="3.9" fill="#93ecf6" opacity="0.53"/><circle cx="626.5" cy="641.4" r="2.8" fill="#93ecf6" opacity="0.49"/><circle cx="556.6" cy="447.3" r="2.4" fill="#93ecf6" opacity="0.23"/><circle cx="167.4" cy="457.2" r="2.3" fill="#93ecf6" opacity="0.64"/><circle cx="486.0" cy="691.1" r="1.5" fill="#93ecf6" opacity="0.65"/><circle cx="110.0" cy="783.4" r="3.6" fill="#93ecf6" opacity="0.47"/>
    
    <g transform="translate(400 400)" opacity="0.9">
      <path d="M0 -171.35999999999999 C 188.496 -171.35999999999999 197.06399999999996 154.224 0 171.35999999999999 C -197.06399999999996 154.224 -188.496 -171.35999999999999 0 -171.35999999999999 Z"
        fill="#93ecf6" opacity="0.85"/>
      <path d="M0 -179.928 C 6 -231.33599999999998, 18 -239.90399999999997, 22 -265.608"
        fill="none" stroke="#93ecf6" stroke-width="5" stroke-linecap="round"/>
    </g>
  
    
    <g opacity="0.5" stroke="#93ecf6" stroke-width="2.5" stroke-linecap="round">
      <path d="M 594 30 L 770 30 L 770 206" fill="none"/>
      <path d="M 30 594 L 30 770 L 206 770" fill="none"/>
    </g>
  
    <rect x="1" y="1" width="798" height="798" fill="none" stroke="#2a2a38" stroke-width="2"/>
  
</svg>